db306756c0f218566fcb96387b89f059 *tests/data/fate/ffmpeg-bsf-remove-k.avi
130264 tests/data/fate/ffmpeg-bsf-remove-k.avi
#extradata 0:       30, 0x4a4d065a
#tb 0: 1/25
#media_type 0: video
#codec_id 0: mpeg4
#dimensions 0: 716x236
#sar 0: 1/1
0,          0,          0,        1,    20261, 0x8d8ebaf6
0,          1,          1,        1,    17956, 0x31f702a2, F=0x0
0,          2,          2,        1,    22926, 0xe160c517, F=0x0
0,          3,          3,        1,    18722, 0x2b85791c, F=0x0
0,          4,          4,        1,    12655, 0x791f1995, F=0x0
0,          5,          5,        1,     4762, 0x771b1472, F=0x0
0,          6,          6,        1,     3190, 0x22103a3c, F=0x0
0,          7,          7,        1,     1993, 0xdae50653, F=0x0
0,          8,          8,        1,     1428, 0xdf68f5ca, F=0x0
0,          9,          9,        1,     1254, 0x3fcb8947, F=0x0
0,         10,         10,        1,     1058, 0x1bd02021, F=0x0
0,         11,         11,        1,     1052, 0x4f91300d, F=0x0
0,         12,         12,        1,     2674, 0xe1dc5258
0,         13,         13,        1,      933, 0xaa06ea86, F=0x0
0,         14,         14,        1,      881, 0xe3f3c8cc, F=0x0
0,         15,         15,        1,      961, 0x96bd081e, F=0x0
0,         16,         16,        1,     1050, 0x9ca91532, F=0x0
0,         17,         17,        1,      935, 0xe57ee6a1, F=0x0
0,         18,         18,        1,     1084, 0xd3611d62, F=0x0
0,         19,         19,        1,      953, 0x2b29eb30, F=0x0
0,         20,         20,        1,      996, 0x739cf9e2, F=0x0
0,         21,         21,        1,     1012, 0x086700a0, F=0x0
0,         22,         22,        1,     1083, 0x0887271d, F=0x0
0,         23,         23,        1,     1226, 0x655878e9, F=0x0
0,         24,         24,        1,     2881, 0xbb1feefb
